<svg width="245" height="277" viewBox="0 0 245 277" fill="none" xmlns="http://www.w3.org/2000/svg">
<path fill-rule="evenodd" clip-rule="evenodd" d="M186.381 9.00713C185.921 9.00238 185.461 9 185 9C117.069 9 62 60.7111 62 124.5C62 188.289 117.069 240 185 240C206.515 240 226.74 234.813 244.334 225.697C219.124 256.997 180.631 277 137.5 277C61.5608 277 0 214.991 0 138.5C0 62.0086 61.5608 0 137.5 0C154.716 0 171.193 3.18696 186.381 9.00713Z" fill="#D7F1FF"/>
<rect x="118" y="153" width="15" height="48" rx="7.5" fill="#206BB6"/>
<rect x="154" y="136" width="15" height="79" rx="7.5" fill="#1D53A3"/>
<rect x="190" y="120" width="15" height="102" rx="7.5" fill="#244276"/>
<rect x="226" y="98" width="15" height="115" rx="7.5" fill="#213551"/>
</svg>
