<svg width="38" height="38" viewBox="0 0 38 38" fill="none" xmlns="http://www.w3.org/2000/svg">
<path fill-rule="evenodd" clip-rule="evenodd" d="M33.25 19C33.25 26.8701 26.8701 33.25 19 33.25C11.1299 33.25 4.75 26.8701 4.75 19C4.75 11.1299 11.1299 4.75 19 4.75C26.8701 4.75 33.25 11.1299 33.25 19ZM19 27.9167C18.4477 27.9167 18 27.469 18 26.9167V20H11.0833C10.531 20 10.0833 19.5523 10.0833 19C10.0833 18.4477 10.531 18 11.0833 18H18V11.0833C18 10.531 18.4477 10.0833 19 10.0833C19.5523 10.0833 20 10.531 20 11.0833V18H26.9167C27.469 18 27.9167 18.4477 27.9167 19C27.9167 19.5523 27.469 20 26.9167 20H20V26.9167C20 27.469 19.5523 27.9167 19 27.9167Z" fill="#D9D9D9"/>
</svg>
