<svg width="38" height="38" viewBox="0 0 38 38" fill="none" xmlns="http://www.w3.org/2000/svg">
<path d="M31.6667 19V29.25C31.6667 31.1356 31.6667 32.0784 31.0809 32.6642C30.4951 33.25 29.5523 33.25 27.6667 33.25H10.2917C9.40057 33.25 8.95502 33.25 8.58854 33.1561C7.52762 32.8842 6.69917 32.0557 6.42727 30.9948C6.33334 30.6283 6.33334 30.1828 6.33334 29.2917V29.2917C6.33334 28.4006 6.33334 27.955 6.42727 27.5885C6.69917 26.5276 7.52762 25.6992 8.58854 25.4273C8.95502 25.3333 9.40057 25.3333 10.2917 25.3333H27.6667C29.5523 25.3333 30.4951 25.3333 31.0809 24.7475C31.6667 24.1618 31.6667 23.219 31.6667 21.3333V8.75C31.6667 6.86438 31.6667 5.92157 31.0809 5.33579C30.4951 4.75 29.5523 4.75 27.6667 4.75H10.3333C8.44773 4.75 7.50492 4.75 6.91913 5.33579C6.33334 5.92157 6.33334 6.86438 6.33334 8.75V29.2917" stroke="#D9D9D9" stroke-width="2"/>
<path d="M14.25 15.8333L16.7096 18.2929C17.1001 18.6834 17.7332 18.6834 18.1238 18.2929L23.75 12.6667" stroke="#D9D9D9" stroke-width="2" stroke-linecap="round"/>
</svg>
