<svg width="38" height="38" viewBox="0 0 38 38" fill="none" xmlns="http://www.w3.org/2000/svg">
<path fill-rule="evenodd" clip-rule="evenodd" d="M19 33.25C26.8701 33.25 33.25 26.8701 33.25 19C33.25 11.1299 26.8701 4.75 19 4.75C11.1299 4.75 4.75 11.1299 4.75 19C4.75 26.8701 11.1299 33.25 19 33.25ZM26.1016 14.8902C26.4551 14.4659 26.3978 13.8353 25.9735 13.4818C25.5492 13.1282 24.9187 13.1855 24.5651 13.6098L18.0505 21.4274C17.7038 21.8434 17.5089 22.0738 17.3532 22.2153L17.3473 22.2207L17.3409 22.2159C17.1731 22.089 16.9581 21.8772 16.5752 21.4943L13.3738 18.2929C12.9832 17.9024 12.3501 17.9024 11.9596 18.2929C11.569 18.6834 11.569 19.3166 11.9596 19.7071L15.161 22.9085L15.2018 22.9493C15.5283 23.276 15.8424 23.5902 16.1346 23.8111C16.462 24.0587 16.8907 24.2915 17.4401 24.2665C17.9895 24.2416 18.3954 23.971 18.699 23.6948C18.97 23.4483 19.2544 23.1069 19.55 22.7521L19.5869 22.7077L26.1016 14.8902Z" fill="#D9D9D9"/>
</svg>
