<svg width="39" height="39" viewBox="0 0 39 39" fill="none" xmlns="http://www.w3.org/2000/svg">
<circle cx="19.5" cy="13" r="5.5" stroke="#666CFF" stroke-width="2" stroke-linecap="round"/>
<path d="M24.2692 12.6875C24.783 11.7975 25.6294 11.148 26.6221 10.882C27.6148 10.616 28.6725 10.7553 29.5625 11.2692C30.4525 11.783 31.102 12.6294 31.368 13.6221C31.634 14.6148 31.4947 15.6725 30.9808 16.5625C30.467 17.4525 29.6206 18.102 28.6279 18.368C27.6352 18.634 26.5775 18.4947 25.6875 17.9808C24.7975 17.467 24.148 16.6206 23.882 15.6279C23.616 14.6352 23.7553 13.5775 24.2692 12.6875L24.2692 12.6875Z" stroke="#666CFF" stroke-width="2"/>
<path d="M8.01915 12.6875C8.53301 11.7975 9.37938 11.148 10.3721 10.882C11.3648 10.616 12.4225 10.7553 13.3125 11.2692C14.2025 11.783 14.852 12.6294 15.118 13.6221C15.384 14.6148 15.2447 15.6725 14.7308 16.5625C14.217 17.4525 13.3706 18.102 12.3779 18.368C11.3852 18.634 10.3275 18.4947 9.4375 17.9808C8.54747 17.467 7.89803 16.6206 7.63204 15.6279C7.36605 14.6352 7.50529 13.5775 8.01915 12.6875L8.01915 12.6875Z" stroke="#666CFF" stroke-width="2"/>
<path d="M27.4326 29.25L26.4523 29.4474L26.614 30.25H27.4326V29.25ZM33.8849 28.1462L32.922 28.416L32.922 28.416L33.8849 28.1462ZM24.0188 23.9046L23.414 23.1083L22.2574 23.9867L23.4907 24.7538L24.0188 23.9046ZM32.9922 28.25H27.4326V30.25H32.9922V28.25ZM32.922 28.416C32.9184 28.4033 32.9153 28.3774 32.9224 28.3457C32.929 28.3158 32.9419 28.2931 32.9542 28.2782C32.9784 28.2488 32.9988 28.25 32.9922 28.25V30.25C34.1619 30.25 35.2134 29.181 34.8478 27.8764L32.922 28.416ZM27.625 23.75C29.3988 23.75 30.5702 24.4814 31.381 25.4102C32.2186 26.3698 32.6819 27.5593 32.922 28.416L34.8478 27.8764C34.5681 26.8783 34.0005 25.3697 32.8877 24.0949C31.748 22.7893 30.0494 21.75 27.625 21.75V23.75ZM24.6237 24.701C25.3554 24.1452 26.3195 23.75 27.625 23.75V21.75C25.8756 21.75 24.4881 22.2925 23.414 23.1083L24.6237 24.701ZM23.4907 24.7538C25.3947 25.938 26.1555 27.9739 26.4523 29.4474L28.4129 29.0526C28.0724 27.3618 27.1403 24.6684 24.547 23.0555L23.4907 24.7538Z" fill="#666CFF"/>
<path d="M14.9812 23.9046L15.5093 24.7538L16.7426 23.9867L15.586 23.1083L14.9812 23.9046ZM5.11512 28.1462L6.07803 28.416L6.07803 28.416L5.11512 28.1462ZM11.5673 29.25V30.25H12.386L12.5476 29.4474L11.5673 29.25ZM11.375 23.75C12.6805 23.75 13.6446 24.1451 14.3763 24.7009L15.586 23.1083C14.512 22.2924 13.1244 21.75 11.375 21.75V23.75ZM6.07803 28.416C6.31811 27.5593 6.78138 26.3698 7.61904 25.4102C8.4298 24.4814 9.60128 23.75 11.375 23.75V21.75C8.95067 21.75 7.25207 22.7893 6.11235 24.0949C4.99952 25.3697 4.43188 26.8783 4.15221 27.8764L6.07803 28.416ZM6.00779 28.25C6.00122 28.25 6.02155 28.2488 6.04578 28.2782C6.0581 28.2931 6.07099 28.3158 6.07764 28.3457C6.0847 28.3774 6.08159 28.4033 6.07803 28.416L4.15221 27.8764C3.78663 29.181 4.83812 30.25 6.00779 30.25V28.25ZM11.5673 28.25H6.00779V30.25H11.5673V28.25ZM12.5476 29.4474C12.8444 27.9739 13.6052 25.9379 15.5093 24.7538L14.453 23.0554C11.8597 24.6683 10.9275 27.3618 10.587 29.0526L12.5476 29.4474Z" fill="#666CFF"/>
<path d="M19.5 22.75C25.8482 22.75 27.2364 27.7099 27.54 29.8792C27.6166 30.4262 27.1773 30.875 26.625 30.875H12.375C11.8227 30.875 11.3834 30.4262 11.46 29.8792C11.7636 27.7099 13.1518 22.75 19.5 22.75Z" stroke="#666CFF" stroke-width="2" stroke-linecap="round"/>
</svg>
