<svg width="38" height="38" viewBox="0 0 38 38" fill="none" xmlns="http://www.w3.org/2000/svg">
<path d="M19 33.25C17.1287 33.25 15.2756 32.8814 13.5468 32.1653C11.8179 31.4492 10.247 30.3995 8.92373 29.0763C7.60049 27.753 6.55085 26.1821 5.83472 24.4532C5.11859 22.7243 4.75 20.8713 4.75 19C4.75 17.1287 5.11859 15.2756 5.83472 13.5468C6.55085 11.8179 7.60049 10.247 8.92373 8.92373C10.247 7.60049 11.8179 6.55084 13.5468 5.83472C15.2757 5.11859 17.1287 4.75 19 4.75C20.8713 4.75 22.7244 5.11859 24.4532 5.83472C26.1821 6.55085 27.753 7.6005 29.0763 8.92373C30.3995 10.247 31.4492 11.8179 32.1653 13.5468C32.8814 15.2757 33.25 17.1287 33.25 19C33.25 20.8713 32.8814 22.7244 32.1653 24.4532C31.4492 26.1821 30.3995 27.753 29.0763 29.0763C27.753 30.3995 26.1821 31.4492 24.4532 32.1653C22.7243 32.8814 20.8713 33.25 19 33.25L19 33.25Z" stroke="#D9D9D9" stroke-linecap="round"/>
<path d="M14.25 14.25L23.75 23.75" stroke="#D9D9D9" stroke-linecap="round"/>
<path d="M23.75 14.25L14.25 23.75" stroke="#D9D9D9" stroke-linecap="round"/>
</svg>
