<svg width="38" height="38" viewBox="0 0 38 38" fill="none" xmlns="http://www.w3.org/2000/svg">
<path d="M19 7.91666L19.7071 7.20955L19 6.50244L18.2929 7.20955L19 7.91666ZM18 26.9167C18 27.4689 18.4477 27.9167 19 27.9167C19.5523 27.9167 20 27.4689 20 26.9167L18 26.9167ZM29.2071 16.7095L19.7071 7.20955L18.2929 8.62376L27.7929 18.1238L29.2071 16.7095ZM18.2929 7.20955L8.79289 16.7095L10.2071 18.1238L19.7071 8.62376L18.2929 7.20955ZM18 7.91666L18 26.9167L20 26.9167L20 7.91666L18 7.91666Z" fill="#555555"/>
<path d="M7.91667 33.25L30.0833 33.25" stroke="#555555" stroke-width="2"/>
</svg>
